REM DIRINDEX 1\2\6,1\2\7,1\2\8,1\2\9,1\3\10,1\3\11,1\4\12,1\4\13,1\4\14,1\5\15,1\5\16,1\5\17
REM DIRNAME folder01,folder02,folder03,folder04,folder05,folder06,folder07,folder08,folder09,folder10,folder11,folder12,folder13,folder14,folder15,folder16,folder17
TITLE ""
FILE "1900_2_sec13_1235_1252.mp3" MP3
  TRACK 01 AUDIO
    TITLE "0:"
    INDEX 01 00:00:00
  TRACK 02 AUDIO
    TITLE "13:cjc020_4606"
    INDEX 01 00:00:17
  TRACK 03 AUDIO
    TITLE "0:"
    INDEX 01 00:01:32
  TRACK 04 AUDIO
    TITLE "14:cjc020_4607"
    INDEX 01 00:01:36
  TRACK 05 AUDIO
    TITLE "0:"
    INDEX 01 00:04:27
  TRACK 06 AUDIO
    TITLE "13:cjc020_4608"
    INDEX 01 00:05:07
  TRACK 07 AUDIO
    TITLE "0:"
    INDEX 01 00:06:20
  TRACK 08 AUDIO
    TITLE "14:cjc020_4609"
    INDEX 01 00:06:24
  TRACK 09 AUDIO
    TITLE "0:"
    INDEX 01 00:08:73
  TRACK 10 AUDIO
    TITLE "13:cjc020_4610"
    INDEX 01 00:09:51
  TRACK 11 AUDIO
    TITLE "0:"
    INDEX 01 00:10:61
  TRACK 12 AUDIO
    TITLE "14:cjc020_4611"
    INDEX 01 00:10:65
  TRACK 13 AUDIO
    TITLE "0:"
    INDEX 01 00:12:20
  TRACK 14 AUDIO
    TITLE "13:cjc020_4612"
    INDEX 01 00:12:73
  TRACK 15 AUDIO
    TITLE "0:"
    INDEX 01 00:14:25
  TRACK 16 AUDIO
    TITLE "14:cjc020_4613"
    INDEX 01 00:14:29
  TRACK 17 AUDIO
    TITLE "0:"
    INDEX 01 00:16:65
  TRACK 18 AUDIO
    TITLE "13:cjc020_4614"
    INDEX 01 00:17:41
  TRACK 19 AUDIO
    TITLE "0:"
    INDEX 01 00:18:52
  TRACK 20 AUDIO
    TITLE "14:cjc020_4615"
    INDEX 01 00:18:54
  TRACK 21 AUDIO
    TITLE "0:"
    INDEX 01 00:21:41
  TRACK 22 AUDIO
    TITLE "13:cjc020_4616"
    INDEX 01 00:22:21
  TRACK 23 AUDIO
    TITLE "0:"
    INDEX 01 00:23:36
  TRACK 24 AUDIO
    TITLE "14:cjc020_4617"
    INDEX 01 00:23:40
  TRACK 25 AUDIO
    TITLE "0:"
    INDEX 01 00:27:20
  TRACK 26 AUDIO
    TITLE "12:cjc020_4618"
    INDEX 01 00:28:70
  TRACK 27 AUDIO
    TITLE "0:"
    INDEX 01 00:30:20
  TRACK 28 AUDIO
    TITLE "13:cjc020_4619"
    INDEX 01 00:31:20
  TRACK 29 AUDIO
    TITLE "0:"
    INDEX 01 00:32:21
  TRACK 30 AUDIO
    TITLE "14:cjc020_4620"
    INDEX 01 00:32:29
  TRACK 31 AUDIO
    TITLE "0:"
    INDEX 01 00:33:46
  TRACK 32 AUDIO
    TITLE "13:cjc020_4621"
    INDEX 01 00:34:26
  TRACK 33 AUDIO
    TITLE "0:"
    INDEX 01 00:35:27
  TRACK 34 AUDIO
    TITLE "14:cjc020_4622"
    INDEX 01 00:35:29
  TRACK 35 AUDIO
    TITLE "0:"
    INDEX 01 00:39:51
  TRACK 36 AUDIO
    TITLE "13:cjc020_4623"
    INDEX 01 00:40:28
  TRACK 37 AUDIO
    TITLE "0:"
    INDEX 01 00:41:32
  TRACK 38 AUDIO
    TITLE "14:cjc020_4624"
    INDEX 01 00:41:34
  TRACK 39 AUDIO
    TITLE "0:"
    INDEX 01 00:43:62
  TRACK 40 AUDIO
    TITLE "13:cjc020_4625"
    INDEX 01 00:44:44
  TRACK 41 AUDIO
    TITLE "0:"
    INDEX 01 00:45:47
  TRACK 42 AUDIO
    TITLE "14:cjc020_4626"
    INDEX 01 00:45:49
  TRACK 43 AUDIO
    TITLE "0:"
    INDEX 01 00:49:37
  TRACK 44 AUDIO
    TITLE "13:cjc020_4627"
    INDEX 01 00:50:17
  TRACK 45 AUDIO
    TITLE "0:"
    INDEX 01 00:51:22
  TRACK 46 AUDIO
    TITLE "14:cjc020_4628"
    INDEX 01 00:51:24
  TRACK 47 AUDIO
    TITLE "0:"
    INDEX 01 00:53:43
  TRACK 48 AUDIO
    TITLE "13:cjc020_4629"
    INDEX 01 00:54:25
  TRACK 49 AUDIO
    TITLE "0:"
    INDEX 01 00:55:26
  TRACK 50 AUDIO
    TITLE "14:cjc020_4630"
    INDEX 01 00:55:28
  TRACK 51 AUDIO
    TITLE "0:"
    INDEX 01 00:57:37
  TRACK 52 AUDIO
    TITLE "13:cjc020_4631"
    INDEX 01 00:58:18
  TRACK 53 AUDIO
    TITLE "0:"
    INDEX 01 00:59:26
  TRACK 54 AUDIO
    TITLE "14:cjc020_4632"
    INDEX 01 00:59:32
  TRACK 55 AUDIO
    TITLE "0:"
    INDEX 01 01:01:68
  TRACK 56 AUDIO
    TITLE "13:cjc020_4633"
    INDEX 01 01:02:50
  TRACK 57 AUDIO
    TITLE "0:"
    INDEX 01 01:03:61
  TRACK 58 AUDIO
    TITLE "14:cjc020_4634"
    INDEX 01 01:03:65
  TRACK 59 AUDIO
    TITLE "0:"
    INDEX 01 01:06:55
  TRACK 60 AUDIO
    TITLE "13:cjc020_4635"
    INDEX 01 01:07:35
  TRACK 61 AUDIO
    TITLE "0:"
    INDEX 01 01:08:40
  TRACK 62 AUDIO
    TITLE "14:cjc020_4636"
    INDEX 01 01:08:44
  TRACK 63 AUDIO
    TITLE "0:"
    INDEX 01 01:12:05
  TRACK 64 AUDIO
    TITLE "13:cjc020_4637"
    INDEX 01 01:12:54
  TRACK 65 AUDIO
    TITLE "0:"
    INDEX 01 01:13:57
  TRACK 66 AUDIO
    TITLE "14:cjc020_4638"
    INDEX 01 01:13:61
  TRACK 67 AUDIO
    TITLE "0:"
    INDEX 01 01:15:70
  TRACK 68 AUDIO
    TITLE "13:cjc020_4639"
    INDEX 01 01:16:48
  TRACK 69 AUDIO
    TITLE "0:"
    INDEX 01 01:17:55
  TRACK 70 AUDIO
    TITLE "14:cjc020_4640"
    INDEX 01 01:17:59
  TRACK 71 AUDIO
    TITLE "0:"
    INDEX 01 01:21:70
  TRACK 72 AUDIO
    TITLE "13:cjc020_4641"
    INDEX 01 01:22:54
  TRACK 73 AUDIO
    TITLE "0:"
    INDEX 01 01:23:67
  TRACK 74 AUDIO
    TITLE "14:cjc020_4642"
    INDEX 01 01:23:71
  TRACK 75 AUDIO
    TITLE "0:"
    INDEX 01 01:24:73
